<svg xmlns="http://www.w3.org/2000/svg" viewBox="0 0 3360 1012">
  <defs>
    <style>.cls-1{fill:#fff;}</style>
  </defs>
  <title>Logo</title>
  <g id="Logo" data-name="Layer 10">
    <polygon class="cls-1" points="486.05 928.98 486.05 928.98 486.05 928.98 486.05 928.98"/>
    <polygon class="cls-1"
             points="116 288.04 116.14 715.25 485.91 928.9 485.83 857.64 485.75 643.93 423.72 679.74 423.61 680.65 423.4 680.29 300.21 466.91 362.7 430.83 331.71 377.15 269.48 413.07 216.34 443.76 247.18 497.17 401.36 764.23 424.23 751.02 424.23 822.08 177.84 679.81 177.81 323.93 424.39 181.57 424.23 110.08 116 288.04"/>
    <polygon class="cls-1"
             points="855.82 715.49 855.68 288.28 485.91 74.63 485.99 145.89 486.06 359.6 548.09 323.79 548.21 322.88 548.41 323.25 671.61 536.63 609.12 572.71 640.11 626.38 702.33 590.46 755.48 559.78 724.64 506.37 570.46 239.31 547.58 252.51 547.58 181.46 793.97 323.73 794.01 679.6 547.43 821.97 547.58 893.45 855.82 715.49"/>
    <path class="cls-1"
          d="M1385.84,285.58q-17.32,19.58-40.27,47t-48.54,61q-25.6,33.5-52.68,70.75t-53.06,75.26q-26,38-49.3,75.64t-42.15,71.5h293.52v62.47H1014.8V700.27q15.8-30.09,37.25-66.23T1098,560.28q24.45-37.63,50.8-76t52.31-73.76q26-35.37,50.43-66.23t44.78-54.19H1028.34V227.62h357.5Z"/>
    <path class="cls-1"
          d="M1447.56,554.26q0-51.93,15.05-90.69t39.89-64.35a162.14,162.14,0,0,1,57.2-38.38A178.74,178.74,0,0,1,1625.93,348q79,0,121.17,49.3t42.15,150.15v11.67a108.05,108.05,0,0,1-.75,13.17H1520.57q4.52,61,35.37,92.57t96.34,31.61q36.87,0,62.09-6.4t38-12.42l9.78,58.7q-12.81,6.77-44.78,14.3t-72.63,7.53q-51.19,0-88.43-15.43T1495,700.27q-24.1-27.09-35.75-64.35T1447.56,554.26Zm268.69-38.38q.74-47.42-23.71-77.9t-67.36-30.48q-24.1,0-42.52,9.41a100.31,100.31,0,0,0-31.23,24.46A112.48,112.48,0,0,0,1531.48,476a170.52,170.52,0,0,0-9.41,39.89Z"/>
    <path class="cls-1"
          d="M2034.6,349.55q9,0,20.7,1.13t23,3q11.29,1.89,20.7,3.76a128.57,128.57,0,0,1,13.92,3.39l-12,61q-8.29-3-27.47-7.15t-49.3-4.14a183.77,183.77,0,0,0-38.76,4.14q-19.19,4.14-25.21,5.64v328.9h-70V374.39q24.84-9,61.72-16.93T2034.6,349.55Z"/>
    <path class="cls-1"
          d="M2526.06,553.51q0,46.67-13.55,84.29t-38,64.73a167.23,167.23,0,0,1-58.33,41.77Q2382.31,759,2342.42,759t-73.76-14.68a167.11,167.11,0,0,1-58.33-41.77q-24.47-27.09-38-64.73t-13.55-84.29q0-45.9,13.55-83.92t38-65.1a167.12,167.12,0,0,1,58.33-41.77Q2302.53,348,2342.42,348t73.76,14.68a167.24,167.24,0,0,1,58.33,41.77q24.45,27.1,38,65.1T2526.06,553.51Zm-73,0q0-66.22-29.73-105t-80.91-38.76q-51.19,0-80.91,38.76t-29.73,105q0,66.24,29.73,105t80.91,38.76q51.17,0,80.91-38.76T2453.05,553.51Z"/>
    <path class="cls-1"
          d="M2690.13,357.83h148.27v58.7H2690.13V597.16q0,29.35,4.52,48.54t13.55,30.11a48.71,48.71,0,0,0,22.58,15.43q13.55,4.52,31.61,4.52,31.61,0,50.8-7.15t26.72-10.16l13.55,58q-10.55,5.27-36.88,13.17t-60.21,7.9q-39.9,0-65.85-10.16t-41.77-30.48q-15.8-20.32-22.2-50t-6.4-68.87V248.7l70-12Z"/>
    <path class="cls-1"
          d="M2927.2,749.19v-572l70-12v200.2a245.57,245.57,0,0,1,85.8-15.8q46.66,0,77.52,13.17t49.3,36.88q18.43,23.71,26,56.82t7.53,73V749.19h-70V544.48q0-36.13-4.89-61.71t-16.18-41.39a64.12,64.12,0,0,0-30.11-23q-18.82-7.14-46.66-7.15a188.72,188.72,0,0,0-23.33,1.51q-12,1.52-23,3.39t-19.57,4.14a116.71,116.71,0,0,0-12.42,3.76V749.19Z"/>
  </g>
</svg>
