<svg xmlns="http://www.w3.org/2000/svg" viewBox="0 0 1000 1000">
    <defs>
        <style>.cls-1{fill:#000;}</style>
    </defs>
    <title>Logo</title>
    <g id="logo" data-name="Layer 10">
        <polygon class="cls-1"
                 points="116 288.04 116.14 715.25 485.91 928.9 485.83 857.64 485.75 643.93 423.72 679.74 423.61 680.65 423.4 680.29 300.21 466.91 362.7 430.83 331.71 377.15 269.48 413.07 216.34 443.76 247.18 497.17 401.36 764.23 424.23 751.02 424.23 822.08 177.84 679.81 177.81 323.93 424.39 181.57 424.23 110.08 116 288.04"/>
        <polygon class="cls-1"
                 points="855.82 715.49 855.68 288.28 485.91 74.63 485.99 145.89 486.06 359.6 548.09 323.79 548.21 322.88 548.41 323.25 671.61 536.63 609.12 572.71 640.11 626.38 702.33 590.46 755.48 559.78 724.64 506.37 570.46 239.31 547.58 252.51 547.58 181.46 793.97 323.73 794.01 679.6 547.43 821.97 547.58 893.45 855.82 715.49"/>
    </g>
</svg>
